STARTFONT 2.1
FONT -sun-conga-bold-r-normal--17-170-75-75-p-118-adobe-fontspecific
SIZE 17 75 75
FONTBOUNDINGBOX 27 20 -4 -4

STARTPROPERTIES 28
FOUNDRY "sun"
FAMILY_NAME "conga"
WEIGHT_NAME "bold"
SLANT "r"
SETWIDTH_NAME "normal"
ADD_STYLE_NAME ""
PIXEL_SIZE 18
POINT_SIZE 170
RESOLUTION_X 75
RESOLUTION_Y 75
SPACING "p"
AVERAGE_WIDTH 118
CHARSET_REGISTRY "adobe"
CHARSET_ENCODING "fontspecific"
COPYRIGHT "© 1999 Sun Microsystems, Inc."
RAW_PIXELSIZE 1000
RAW_POINTSIZE 964
RAW_ASCENT 928
RAW_DESCENT 219
RAW_AVERAGE_WIDTH 6696
FACE_NAME "CongaBoldrg"
_XMBDFED_INFO "Edited with xmbdfed 2.4."
WEIGHT 10
X_HEIGHT -1
QUAD_WIDTH 12
DEFAULT_CHAR 4
FONT_DESCENT 4
FONT_ASCENT 16
ENDPROPERTIES

CHARS 203

STARTCHAR char32
ENCODING 32
SWIDTH 45 0
DWIDTH 9 0
BBX 0 0 0 0
BITMAP
ENDCHAR

STARTCHAR char33
ENCODING 33
SWIDTH 20 0
DWIDTH 4 0
BBX 3 13 1 0
BITMAP
E0
C0
C0
C0
C0
C0
C0
C0
C0
00
00
C0
C0
ENDCHAR

STARTCHAR char34
ENCODING 34
SWIDTH 30 0
DWIDTH 6 0
BBX 4 4 1 8
BITMAP
F0
F0
50
50
ENDCHAR

STARTCHAR char35
ENCODING 35
SWIDTH 4 0
DWIDTH 11 0
BBX 8 13 1 0
BITMAP
12
32
32
22
FF
24
24
24
FF
44
44
4C
48
ENDCHAR

STARTCHAR char36
ENCODING 36
SWIDTH 19 0
DWIDTH 14 0
BBX 12 16 0 -2
BITMAP
0600
0700
1FF0
3270
6220
6600
7600
1FC0
0260
0230
2230
6270
FBE0
1F80
0200
0200
ENDCHAR

STARTCHAR char37
ENCODING 37
SWIDTH 8 0
DWIDTH 22 0
BBX 19 12 0 0
BITMAP
3E0400
420400
C30800
C31000
C32780
426CC0
7ED860
009860
011860
021860
0408C0
040780
ENDCHAR

STARTCHAR char38
ENCODING 38
SWIDTH 29 0
DWIDTH 16 0
BBX 14 12 0 0
BITMAP
0F00
30C0
30C0
30C0
1D84
3F0C
60D0
60F0
E0E0
60F0
71BC
1F0C
ENDCHAR

STARTCHAR char39
ENCODING 39
SWIDTH 15 0
DWIDTH 3 0
BBX 2 4 1 10
BITMAP
80
80
C0
C0
ENDCHAR

STARTCHAR char40
ENCODING 40
SWIDTH 30 0
DWIDTH 6 0
BBX 4 13 1 0
BITMAP
10
30
60
40
C0
C0
C0
C0
C0
40
40
20
10
ENDCHAR

STARTCHAR char41
ENCODING 41
SWIDTH 30 0
DWIDTH 6 0
BBX 5 13 0 0
BITMAP
40
40
20
30
10
18
18
18
18
30
30
60
C0
ENDCHAR

STARTCHAR char42
ENCODING 42
SWIDTH 45 0
DWIDTH 9 0
BBX 8 8 0 5
BITMAP
10
18
4A
FF
18
3C
66
24
ENDCHAR

STARTCHAR char43
ENCODING 43
SWIDTH 14 0
DWIDTH 13 0
BBX 10 10 1 0
BITMAP
0C00
0C00
0C00
0C00
FFC0
0C00
0C00
0C00
0C00
0C00
ENDCHAR

STARTCHAR char44
ENCODING 44
SWIDTH 20 0
DWIDTH 4 0
BBX 2 4 1 -2
BITMAP
C0
C0
40
40
ENDCHAR

STARTCHAR char45
ENCODING 45
SWIDTH 30 0
DWIDTH 6 0
BBX 5 1 0 5
BITMAP
F8
ENDCHAR

STARTCHAR char46
ENCODING 46
SWIDTH 20 0
DWIDTH 4 0
BBX 2 2 1 0
BITMAP
C0
C0
ENDCHAR

STARTCHAR char47
ENCODING 47
SWIDTH 14 0
DWIDTH 13 0
BBX 11 13 0 0
BITMAP
0020
0020
0040
0080
0180
0300
0600
0C00
0800
1000
2000
4000
4000
ENDCHAR

STARTCHAR char48
ENCODING 48
SWIDTH 24 0
DWIDTH 15 0
BBX 13 13 0 0
BITMAP
0200
1FC0
3060
6030
6018
C018
C018
C018
C018
6018
7030
38E0
0F80
ENDCHAR

STARTCHAR char49
ENCODING 49
SWIDTH 24 0
DWIDTH 15 0
BBX 4 12 5 0
BITMAP
70
F0
B0
30
30
30
30
30
30
30
30
30
ENDCHAR

STARTCHAR char50
ENCODING 50
SWIDTH 24 0
DWIDTH 15 0
BBX 12 12 1 0
BITMAP
0F80
70C0
6060
2060
00E0
03C0
0F00
1C00
7000
6000
E010
FFE0
ENDCHAR

STARTCHAR char51
ENCODING 51
SWIDTH 24 0
DWIDTH 15 0
BBX 11 12 1 0
BITMAP
3F80
F0C0
4060
4060
08C0
0FC0
08E0
0060
4020
C060
F1E0
1F80
ENDCHAR

STARTCHAR char52
ENCODING 52
SWIDTH 24 0
DWIDTH 15 0
BBX 12 12 1 0
BITMAP
03C0
03C0
06C0
0CC0
18C0
30C0
60C0
C0D0
FFF0
80D0
00C0
01E0
ENDCHAR

STARTCHAR char53
ENCODING 53
SWIDTH 24 0
DWIDTH 15 0
BBX 12 13 1 0
BITMAP
0020
7FE0
6010
6000
6000
6F80
70E0
2030
0030
4030
E060
71C0
1F00
ENDCHAR

STARTCHAR char54
ENCODING 54
SWIDTH 24 0
DWIDTH 15 0
BBX 12 12 1 0
BITMAP
1FC0
7070
6020
C000
CFC0
F8E0
E070
E030
E030
6070
3CE0
1F80
ENDCHAR

STARTCHAR char55
ENCODING 55
SWIDTH 24 0
DWIDTH 15 0
BBX 12 13 1 0
BITMAP
8010
FFE0
8060
00C0
00C0
0180
0300
0300
0600
0E00
0C00
1800
3C00
ENDCHAR

STARTCHAR char56
ENCODING 56
SWIDTH 24 0
DWIDTH 15 0
BBX 12 12 1 0
BITMAP
3FC0
E0E0
C070
C060
70E0
7FC0
E0E0
C030
C030
C030
70E0
3F80
ENDCHAR

STARTCHAR char57
ENCODING 57
SWIDTH 24 0
DWIDTH 15 0
BBX 11 12 1 0
BITMAP
1F80
60C0
C040
C060
C060
60E0
3F60
0060
0040
C0C0
E180
3F00
ENDCHAR

STARTCHAR char58
ENCODING 58
SWIDTH 20 0
DWIDTH 4 0
BBX 2 8 1 0
BITMAP
C0
C0
00
00
00
00
C0
C0
ENDCHAR

STARTCHAR char59
ENCODING 59
SWIDTH 20 0
DWIDTH 4 0
BBX 2 10 1 -2
BITMAP
C0
C0
00
00
00
00
C0
C0
40
40
ENDCHAR

STARTCHAR char60
ENCODING 60
SWIDTH 9 0
DWIDTH 12 0
BBX 9 9 1 0
BITMAP
0080
0700
1C00
7000
8000
6000
1C00
0700
0180
ENDCHAR

STARTCHAR char61
ENCODING 61
SWIDTH 14 0
DWIDTH 13 0
BBX 11 4 0 3
BITMAP
FFE0
0000
0000
FFE0
ENDCHAR

STARTCHAR char62
ENCODING 62
SWIDTH 9 0
DWIDTH 12 0
BBX 9 9 1 0
BITMAP
8000
6000
1C00
0700
0180
0700
1C00
7000
8000
ENDCHAR

STARTCHAR char63
ENCODING 63
SWIDTH 50 0
DWIDTH 10 0
BBX 8 12 1 0
BITMAP
3C
C7
43
07
06
0C
08
08
00
00
18
18
ENDCHAR

STARTCHAR char64
ENCODING 64
SWIDTH 44 0
DWIDTH 19 0
BBX 14 13 2 0
BITMAP
07C0
1860
3018
67A8
4CCC
D84C
D84C
D8C8
D990
6EE0
3018
1830
0FC0
ENDCHAR

STARTCHAR char65
ENCODING 65
SWIDTH 24 0
DWIDTH 15 0
BBX 14 12 0 0
BITMAP
0780
0780
0D80
0DC0
18C0
18C0
1060
3FE0
2030
6030
4018
E01C
ENDCHAR

STARTCHAR char66
ENCODING 66
SWIDTH 24 0
DWIDTH 15 0
BBX 12 12 1 0
BITMAP
FFC0
C060
C030
C030
C060
FFC0
C060
C030
C030
C030
C060
FFC0
ENDCHAR

STARTCHAR char67
ENCODING 67
SWIDTH 29 0
DWIDTH 16 0
BBX 15 12 0 0
BITMAP
0FE0
381E
7004
6000
C000
C000
C000
C000
6004
300C
1C38
0FE0
ENDCHAR

STARTCHAR char68
ENCODING 68
SWIDTH 29 0
DWIDTH 16 0
BBX 13 12 1 0
BITMAP
FF80
C060
C030
C018
C018
C018
C018
C018
C030
C030
C060
FF80
ENDCHAR

STARTCHAR char69
ENCODING 69
SWIDTH 19 0
DWIDTH 14 0
BBX 12 12 1 0
BITMAP
FFE0
C010
C000
C000
C080
FF00
C080
C000
C000
C000
C010
FFE0
ENDCHAR

STARTCHAR char70
ENCODING 70
SWIDTH 19 0
DWIDTH 14 0
BBX 12 12 1 0
BITMAP
FFF0
C010
C000
C000
C080
FF00
C080
C000
C000
C000
C000
E000
ENDCHAR

STARTCHAR char71
ENCODING 71
SWIDTH 29 0
DWIDTH 16 0
BBX 15 12 0 0
BITMAP
0FE0
381C
7008
6000
C000
C102
C1FC
C18C
600C
700C
183C
0FE0
ENDCHAR

STARTCHAR char72
ENCODING 72
SWIDTH 29 0
DWIDTH 16 0
BBX 13 12 1 0
BITMAP
E038
C030
C030
C030
C030
FFF0
C030
C030
C030
C030
C030
E038
ENDCHAR

STARTCHAR char73
ENCODING 73
SWIDTH 25 0
DWIDTH 5 0
BBX 4 12 1 0
BITMAP
F0
C0
C0
C0
C0
C0
C0
C0
C0
C0
C0
E0
ENDCHAR

STARTCHAR char74
ENCODING 74
SWIDTH 9 0
DWIDTH 12 0
BBX 11 12 0 0
BITMAP
01E0
00C0
00C0
00C0
00C0
00C0
00C0
00C0
00C0
41C0
E380
3F00
ENDCHAR

STARTCHAR char75
ENCODING 75
SWIDTH 19 0
DWIDTH 14 0
BBX 12 12 1 0
BITMAP
E0F0
C180
C300
CE00
DC00
FE00
E700
C380
C180
C0C0
C060
E070
ENDCHAR

STARTCHAR char76
ENCODING 76
SWIDTH 19 0
DWIDTH 14 0
BBX 12 12 1 0
BITMAP
E000
C000
C000
C000
C000
C000
C000
C000
C000
C000
C010
FFE0
ENDCHAR

STARTCHAR char77
ENCODING 77
SWIDTH 39 0
DWIDTH 18 0
BBX 15 12 1 0
BITMAP
F01E
F01C
F03C
D86C
D86C
CCCC
CCCC
C78C
C78C
C30C
C30C
C11E
ENDCHAR

STARTCHAR char78
ENCODING 78
SWIDTH 29 0
DWIDTH 16 0
BBX 14 12 1 0
BITMAP
F03C
F018
D818
CC18
CE18
C718
C398
C1D8
C0D8
C078
C038
E03C
ENDCHAR

STARTCHAR char79
ENCODING 79
SWIDTH 39 0
DWIDTH 18 0
BBX 15 12 0 0
BITMAP
0FF0
3838
700C
6006
C006
C006
C006
C006
600C
301C
1C38
0FE0
ENDCHAR

STARTCHAR char80
ENCODING 80
SWIDTH 19 0
DWIDTH 14 0
BBX 12 12 1 0
BITMAP
FFC0
C060
C030
C030
C070
FFC0
C000
C000
C000
C000
C000
E000
ENDCHAR

STARTCHAR char81
ENCODING 81
SWIDTH 29 0
DWIDTH 16 0
BBX 14 14 0 -2
BITMAP
1FE0
3830
7018
600C
C00C
C00C
C00C
C00C
601C
77B8
38F0
0FE0
001C
0008
ENDCHAR

STARTCHAR char82
ENCODING 82
SWIDTH 24 0
DWIDTH 15 0
BBX 13 12 1 0
BITMAP
FFC0
C060
C030
C030
C070
FFC0
C180
C180
C0C0
C0C0
C060
E078
ENDCHAR

STARTCHAR char83
ENCODING 83
SWIDTH 24 0
DWIDTH 15 0
BBX 13 12 0 0
BITMAP
0FC0
3038
6010
6000
7800
1FE0
0038
0018
2018
6030
F8F0
0FC0
ENDCHAR

STARTCHAR char84
ENCODING 84
SWIDTH 19 0
DWIDTH 14 0
BBX 13 12 0 0
BITMAP
FFF0
8608
0600
0600
0600
0600
0600
0600
0600
0600
0600
0700
ENDCHAR

STARTCHAR char85
ENCODING 85
SWIDTH 29 0
DWIDTH 16 0
BBX 13 12 1 0
BITMAP
E078
C030
C030
C030
C030
C030
C030
C030
C030
E070
70E0
1F80
ENDCHAR

STARTCHAR char86
ENCODING 86
SWIDTH 24 0
DWIDTH 15 0
BBX 14 12 0 0
BITMAP
F03C
6030
6030
3060
3060
18C0
18C0
0C80
0D80
0D00
0700
0480
ENDCHAR

STARTCHAR char87
ENCODING 87
SWIDTH 3 0
DWIDTH 21 0
BBX 20 12 0 0
BITMAP
F0F0F0
60E0C0
61E080
61B180
313180
333180
331B00
1B1B00
1A1B00
1E0A00
0E0E00
1E0F00
ENDCHAR

STARTCHAR char88
ENCODING 88
SWIDTH 14 0
DWIDTH 13 0
BBX 12 12 0 0
BITMAP
F070
30C0
3980
1B80
0F00
0600
0F00
1B00
1980
30C0
60E0
E070
ENDCHAR

STARTCHAR char89
ENCODING 89
SWIDTH 19 0
DWIDTH 14 0
BBX 13 12 0 0
BITMAP
F078
7060
30C0
1980
1F80
0F00
0600
0600
0600
0600
0600
0700
ENDCHAR

STARTCHAR char90
ENCODING 90
SWIDTH 19 0
DWIDTH 14 0
BBX 13 13 0 0
BITMAP
8000
FFE0
80E0
00C0
0180
0300
0700
0E00
0C00
1800
3800
70F0
7FF8
ENDCHAR

STARTCHAR char91
ENCODING 91
SWIDTH 30 0
DWIDTH 6 0
BBX 5 13 1 0
BITMAP
C8
F0
C0
C0
C0
C0
C0
C0
C0
C0
C0
C8
F0
ENDCHAR

STARTCHAR char92
ENCODING 92
SWIDTH 25 0
DWIDTH 5 0
BBX 5 13 0 0
BITMAP
80
80
40
40
40
20
20
20
10
10
10
08
08
ENDCHAR

STARTCHAR char93
ENCODING 93
SWIDTH 30 0
DWIDTH 6 0
BBX 5 13 1 0
BITMAP
88
F0
30
30
30
30
30
30
30
30
30
B0
F0
ENDCHAR

STARTCHAR char94
ENCODING 94
SWIDTH 0 0
DWIDTH 0 0
BBX 6 3 -3 13
BITMAP
30
58
CC
ENDCHAR

STARTCHAR char95
ENCODING 95
SWIDTH 4 0
DWIDTH 11 0
BBX 10 1 0 -2
BITMAP
FFC0
ENDCHAR

STARTCHAR char96
ENCODING 96
SWIDTH 0 0
DWIDTH 0 0
BBX 3 3 -2 11
BITMAP
C0
40
60
ENDCHAR

STARTCHAR char97
ENCODING 97
SWIDTH 9 0
DWIDTH 12 0
BBX 11 10 0 0
BITMAP
0F00
0A00
1B00
1300
3100
3180
7F80
60C0
4040
E060
ENDCHAR

STARTCHAR char98
ENCODING 98
SWIDTH 14 0
DWIDTH 13 0
BBX 10 10 1 0
BITMAP
FF00
C0C0
C0C0
C0C0
FF80
C180
C0C0
C0C0
C1C0
FF00
ENDCHAR

STARTCHAR char99
ENCODING 99
SWIDTH 14 0
DWIDTH 13 0
BBX 12 10 0 0
BITMAP
1FC0
3020
6020
C000
C000
C000
C000
6030
3060
1F80
ENDCHAR

STARTCHAR char100
ENCODING 100
SWIDTH 19 0
DWIDTH 14 0
BBX 11 10 1 0
BITMAP
FF00
C1C0
C0E0
C060
C060
C060
C060
C0C0
C180
FF00
ENDCHAR

STARTCHAR char101
ENCODING 101
SWIDTH 9 0
DWIDTH 12 0
BBX 10 11 1 0
BITMAP
0040
FFC0
C000
C000
C000
FE00
C100
C000
C000
C040
FFC0
ENDCHAR

STARTCHAR char102
ENCODING 102
SWIDTH 9 0
DWIDTH 12 0
BBX 9 11 1 0
BITMAP
0080
FF80
C000
C000
C000
FE00
C100
C000
C000
C000
E000
ENDCHAR

STARTCHAR char103
ENCODING 103
SWIDTH 19 0
DWIDTH 14 0
BBX 13 10 0 0
BITMAP
1FC0
3020
6000
C000
C108
C1F0
C030
6030
3870
0FC0
ENDCHAR

STARTCHAR char104
ENCODING 104
SWIDTH 19 0
DWIDTH 14 0
BBX 10 10 1 0
BITMAP
C0C0
C0C0
C0C0
C0C0
FFC0
C0C0
C0C0
C0C0
C0C0
E0C0
ENDCHAR

STARTCHAR char105
ENCODING 105
SWIDTH 25 0
DWIDTH 5 0
BBX 3 10 1 0
BITMAP
E0
C0
C0
C0
C0
C0
C0
C0
C0
E0
ENDCHAR

STARTCHAR char106
ENCODING 106
SWIDTH 50 0
DWIDTH 10 0
BBX 8 10 1 0
BITMAP
07
06
06
06
06
06
06
86
C6
78
ENDCHAR

STARTCHAR char107
ENCODING 107
SWIDTH 9 0
DWIDTH 12 0
BBX 11 10 1 0
BITMAP
E1E0
C700
CC00
D800
FC00
E600
C600
C300
C180
E0E0
ENDCHAR

STARTCHAR char108
ENCODING 108
SWIDTH 9 0
DWIDTH 12 0
BBX 10 10 1 0
BITMAP
E000
C000
C000
C000
C000
C000
C000
C000
C040
FF80
ENDCHAR

STARTCHAR char109
ENCODING 109
SWIDTH 24 0
DWIDTH 15 0
BBX 13 10 1 0
BITMAP
F078
E0D0
F0F0
D1B0
D930
DB30
CE30
CE30
C430
E478
ENDCHAR

STARTCHAR char110
ENCODING 110
SWIDTH 19 0
DWIDTH 14 0
BBX 12 10 1 0
BITMAP
F070
F060
D860
D860
CC60
C660
C360
C1E0
C0E0
80F0
ENDCHAR

STARTCHAR char111
ENCODING 111
SWIDTH 24 0
DWIDTH 15 0
BBX 13 10 0 0
BITMAP
1FC0
3070
6030
C018
C018
C018
C018
6030
3860
0FC0
ENDCHAR

STARTCHAR char112
ENCODING 112
SWIDTH 9 0
DWIDTH 12 0
BBX 10 10 1 0
BITMAP
FF80
C0C0
C0C0
C0C0
FF80
C000
C000
C000
C000
E000
ENDCHAR

STARTCHAR char113
ENCODING 113
SWIDTH 19 0
DWIDTH 14 0
BBX 12 11 0 -1
BITMAP
1FC0
3060
6030
C030
C030
C030
C030
6660
31E0
0FC0
0060
ENDCHAR

STARTCHAR char114
ENCODING 114
SWIDTH 14 0
DWIDTH 13 0
BBX 11 10 1 0
BITMAP
FF00
C0C0
C0C0
C0C0
FF80
C200
C300
C100
C180
E0E0
ENDCHAR

STARTCHAR char115
ENCODING 115
SWIDTH 9 0
DWIDTH 12 0
BBX 11 10 0 0
BITMAP
1F80
6060
C000
E000
7F80
01E0
0060
C060
E1C0
1F00
ENDCHAR

STARTCHAR char116
ENCODING 116
SWIDTH 9 0
DWIDTH 12 0
BBX 12 11 -1 0
BITMAP
C010
FFE0
0600
0600
0600
0600
0600
0600
0600
0600
0600
ENDCHAR

STARTCHAR char117
ENCODING 117
SWIDTH 19 0
DWIDTH 14 0
BBX 12 10 1 0
BITMAP
E0F0
C060
C060
C060
C060
C060
C060
C060
60C0
3F80
ENDCHAR

STARTCHAR char118
ENCODING 118
SWIDTH 9 0
DWIDTH 12 0
BBX 12 10 0 0
BITMAP
E070
60C0
6080
2080
3180
1100
1B00
0A00
0E00
0F00
ENDCHAR

STARTCHAR char119
ENCODING 119
SWIDTH 39 0
DWIDTH 18 0
BBX 17 10 0 0
BITMAP
E3C780
438600
62C400
62C400
264C00
244800
346800
1C3800
1C3000
1C3800
ENDCHAR

STARTCHAR char120
ENCODING 120
SWIDTH 4 0
DWIDTH 11 0
BBX 11 10 0 0
BITMAP
F1E0
3100
3200
1E00
0C00
1C00
1600
3300
6180
E1E0
ENDCHAR

STARTCHAR char121
ENCODING 121
SWIDTH 9 0
DWIDTH 12 0
BBX 11 10 0 0
BITMAP
F0E0
6180
3300
1600
0E00
0C00
0C00
0C00
0C00
0E00
ENDCHAR

STARTCHAR char122
ENCODING 122
SWIDTH 9 0
DWIDTH 12 0
BBX 11 10 0 0
BITMAP
FFC0
0180
0300
0600
0400
0C00
1800
3000
6020
FFC0
ENDCHAR

STARTCHAR char123
ENCODING 123
SWIDTH 30 0
DWIDTH 6 0
BBX 4 15 1 -3
BITMAP
70
60
60
60
60
60
40
80
40
40
60
60
60
60
30
ENDCHAR

STARTCHAR char124
ENCODING 124
SWIDTH 25 0
DWIDTH 5 0
BBX 2 13 1 0
BITMAP
C0
C0
C0
C0
C0
C0
C0
C0
C0
C0
C0
C0
C0
ENDCHAR

STARTCHAR char125
ENCODING 125
SWIDTH 30 0
DWIDTH 6 0
BBX 4 15 1 -3
BITMAP
C0
60
60
60
60
60
20
10
60
60
60
60
60
60
C0
ENDCHAR

STARTCHAR char126
ENCODING 126
SWIDTH 0 0
DWIDTH 0 0
BBX 8 3 -4 13
BITMAP
71
9E
84
ENDCHAR

STARTCHAR char128
ENCODING 128
SWIDTH 29 0
DWIDTH 16 0
BBX 16 12 0 0
BITMAP
07F8
0E0F
1802
3000
FFF8
3000
FFF0
3000
3802
1807
0E1C
03F0
ENDCHAR

STARTCHAR char130
ENCODING 130
SWIDTH 15 0
DWIDTH 3 0
BBX 2 4 1 -2
BITMAP
C0
C0
40
40
ENDCHAR

STARTCHAR char131
ENCODING 131
SWIDTH 0 0
DWIDTH 0 0
BBX 6 3 -3 13
BITMAP
30
58
CC
ENDCHAR

STARTCHAR char132
ENCODING 132
SWIDTH 30 0
DWIDTH 6 0
BBX 5 4 0 -2
BITMAP
D8
D8
48
48
ENDCHAR

STARTCHAR char133
ENCODING 133
SWIDTH 44 0
DWIDTH 19 0
BBX 14 1 2 0
BITMAP
C30C
ENDCHAR

STARTCHAR char134
ENCODING 134
SWIDTH 4 0
DWIDTH 11 0
BBX 10 15 0 -3
BITMAP
0C00
0C00
0C00
FF80
8C40
0C00
0C00
0C00
0C00
0800
0800
0800
0C00
0C00
0C00
ENDCHAR

STARTCHAR char136
ENCODING 136
SWIDTH 0 0
DWIDTH 0 0
BBX 6 5 -3 9
BITMAP
30
30
48
8C
CC
ENDCHAR

STARTCHAR char138
ENCODING 138
SWIDTH 39 0
DWIDTH 18 0
BBX 0 0 0 0
BITMAP
ENDCHAR

STARTCHAR char139
ENCODING 139
SWIDTH 30 0
DWIDTH 6 0
BBX 2 6 2 2
BITMAP
40
40
80
80
C0
40
ENDCHAR

STARTCHAR char140
ENCODING 140
SWIDTH 8 0
DWIDTH 22 0
BBX 20 13 0 0
BITMAP
000030
1FFFF0
386030
606000
E06000
C06080
C07F00
C06080
C06000
606000
306000
387FE0
0FFFE0
ENDCHAR

STARTCHAR char141
ENCODING 141
SWIDTH 39 0
DWIDTH 18 0
BBX 0 0 0 0
BITMAP
ENDCHAR

STARTCHAR char145
ENCODING 145
SWIDTH 20 0
DWIDTH 4 0
BBX 2 4 1 10
BITMAP
80
80
C0
C0
ENDCHAR

STARTCHAR char146
ENCODING 146
SWIDTH 20 0
DWIDTH 4 0
BBX 2 4 1 8
BITMAP
C0
40
40
40
ENDCHAR

STARTCHAR char147
ENCODING 147
SWIDTH 30 0
DWIDTH 6 0
BBX 5 4 0 8
BITMAP
D8
90
D8
D8
ENDCHAR

STARTCHAR char148
ENCODING 148
SWIDTH 30 0
DWIDTH 6 0
BBX 5 4 0 8
BITMAP
D8
D8
48
48
ENDCHAR

STARTCHAR char149
ENCODING 149
SWIDTH 30 0
DWIDTH 6 0
BBX 5 5 0 4
BITMAP
70
F8
F8
F8
70
ENDCHAR

STARTCHAR char150
ENCODING 150
SWIDTH 24 0
DWIDTH 15 0
BBX 13 1 0 5
BITMAP
FFF8
ENDCHAR

STARTCHAR char151
ENCODING 151
SWIDTH 14 0
DWIDTH 13 0
BBX 11 1 0 5
BITMAP
FFE0
ENDCHAR

STARTCHAR char152
ENCODING 152
SWIDTH 0 0
DWIDTH 0 0
BBX 8 2 -4 11
BITMAP
72
4C
ENDCHAR

STARTCHAR char153
ENCODING 153
SWIDTH 34 0
DWIDTH 17 0
BBX 14 7 0 5
BITMAP
FF0C
B70C
318C
3194
315C
316C
332C
ENDCHAR

STARTCHAR char155
ENCODING 155
SWIDTH 30 0
DWIDTH 6 0
BBX 2 6 2 2
BITMAP
80
80
40
40
C0
80
ENDCHAR

STARTCHAR char156
ENCODING 156
SWIDTH 39 0
DWIDTH 18 0
BBX 16 11 0 0
BITMAP
0002
1FFE
7180
6180
C180
C1F8
C184
C180
6180
3181
0FFE
ENDCHAR

STARTCHAR char157
ENCODING 157
SWIDTH 39 0
DWIDTH 18 0
BBX 0 0 0 0
BITMAP
ENDCHAR

STARTCHAR char159
ENCODING 159
SWIDTH 19 0
DWIDTH 14 0
BBX 13 16 0 0
BITMAP
1000
3180
0000
0000
E078
6060
30C0
1980
1D80
0F00
0600
0600
0600
0600
0600
0F00
ENDCHAR

STARTCHAR char160
ENCODING 160
SWIDTH 45 0
DWIDTH 9 0
BBX 0 0 0 0
BITMAP
ENDCHAR

STARTCHAR char161
ENCODING 161
SWIDTH 20 0
DWIDTH 4 0
BBX 4 12 0 0
BITMAP
60
60
00
40
40
40
40
40
60
60
60
F0
ENDCHAR

STARTCHAR char162
ENCODING 162
SWIDTH 14 0
DWIDTH 13 0
BBX 13 13 0 -1
BITMAP
0300
0380
1FF8
3320
6320
C300
C300
C200
C200
6230
3A60
1FC0
0300
ENDCHAR

STARTCHAR char163
ENCODING 163
SWIDTH 24 0
DWIDTH 15 0
BBX 13 12 1 0
BITMAP
1FC0
3038
6010
6000
6000
FF80
E180
6000
6000
6000
FFE0
FFE0
ENDCHAR

STARTCHAR char164
ENCODING 164
SWIDTH 0 0
DWIDTH 0 0
BBX 4 3 -1 13
BITMAP
60
40
40
ENDCHAR

STARTCHAR char165
ENCODING 165
SWIDTH 0 0
DWIDTH 0 0
BBX 6 3 -3 13
BITMAP
C8
68
30
ENDCHAR

STARTCHAR char166
ENCODING 166
SWIDTH 39 0
DWIDTH 18 0
BBX 0 0 0 0
BITMAP
ENDCHAR

STARTCHAR char167
ENCODING 167
SWIDTH 50 0
DWIDTH 10 0
BBX 8 16 0 -4
BITMAP
3C
63
62
70
3C
6E
43
61
61
3B
0F
06
43
43
E7
3E
ENDCHAR

STARTCHAR char168
ENCODING 168
SWIDTH 0 0
DWIDTH 0 0
BBX 6 2 -3 12
BITMAP
04
CC
ENDCHAR

STARTCHAR char169
ENCODING 169
SWIDTH 24 0
DWIDTH 15 0
BBX 13 12 0 0
BITMAP
0780
1840
2020
4790
4858
D818
D818
D818
48D0
2710
1060
0F80
ENDCHAR

STARTCHAR char170
ENCODING 170
SWIDTH 0 0
DWIDTH 0 0
BBX 6 2 -3 14
BITMAP
40
CC
ENDCHAR

STARTCHAR char171
ENCODING 171
SWIDTH 40 0
DWIDTH 8 0
BBX 6 7 1 2
BITMAP
2C
68
58
D0
50
48
28
ENDCHAR

STARTCHAR char172
ENCODING 172
SWIDTH 19 0
DWIDTH 14 0
BBX 12 5 0 0
BITMAP
FFF0
0030
0030
0030
0030
ENDCHAR

STARTCHAR char174
ENCODING 174
SWIDTH 24 0
DWIDTH 15 0
BBX 13 12 0 0
BITMAP
0700
18C0
2020
6F90
4CD0
C8D8
CF18
CD18
4D90
6ED0
3020
0FC0
ENDCHAR

STARTCHAR char176
ENCODING 176
SWIDTH 45 0
DWIDTH 9 0
BBX 6 6 -1 6
BITMAP
30
48
CC
CC
48
30
ENDCHAR

STARTCHAR char177
ENCODING 177
SWIDTH 50 0
DWIDTH 10 0
BBX 9 11 0 0
BITMAP
0C00
0C00
0C00
0C00
FF80
0C00
0C00
0C00
0C00
0000
FF80
ENDCHAR

STARTCHAR char179
ENCODING 179
SWIDTH 39 0
DWIDTH 18 0
BBX 0 0 0 0
BITMAP
ENDCHAR

STARTCHAR char180
ENCODING 180
SWIDTH 0 0
DWIDTH 0 0
BBX 3 3 -1 11
BITMAP
60
40
C0
ENDCHAR

STARTCHAR char182
ENCODING 182
SWIDTH 14 0
DWIDTH 13 0
BBX 9 15 1 -3
BITMAP
3F80
7300
F300
F300
F300
7300
1300
1300
1300
1300
1300
1300
1300
1300
1300
ENDCHAR

STARTCHAR char183
ENCODING 183
SWIDTH 15 0
DWIDTH 3 0
BBX 2 2 1 4
BITMAP
C0
C0
ENDCHAR

STARTCHAR char184
ENCODING 184
SWIDTH 0 0
DWIDTH 0 0
BBX 4 3 -2 -3
BITMAP
60
30
70
ENDCHAR

STARTCHAR char185
ENCODING 185
SWIDTH 39 0
DWIDTH 18 0
BBX 0 0 0 0
BITMAP
ENDCHAR

STARTCHAR char186
ENCODING 186
SWIDTH 0 0
DWIDTH 0 0
BBX 8 3 -4 13
BITMAP
71
9E
84
ENDCHAR

STARTCHAR char187
ENCODING 187
SWIDTH 40 0
DWIDTH 8 0
BBX 5 7 1 2
BITMAP
B0
D0
58
68
68
58
D0
ENDCHAR

STARTCHAR char189
ENCODING 189
SWIDTH 39 0
DWIDTH 18 0
BBX 0 0 0 0
BITMAP
ENDCHAR

STARTCHAR char191
ENCODING 191
SWIDTH 50 0
DWIDTH 10 0
BBX 8 12 0 0
BITMAP
18
18
00
18
10
10
20
60
C0
C2
E6
3C
ENDCHAR

STARTCHAR char192
ENCODING 192
SWIDTH 24 0
DWIDTH 15 0
BBX 14 16 0 0
BITMAP
0C00
0600
0200
0000
0700
0780
0D80
0DC0
18C0
18C0
1060
3FE0
2030
6030
4018
E01C
ENDCHAR

STARTCHAR char193
ENCODING 193
SWIDTH 24 0
DWIDTH 15 0
BBX 14 16 0 0
BITMAP
0100
0300
0200
0000
0700
0780
0D80
0DC0
18C0
18C0
1060
3FE0
2030
6030
4018
E01C
ENDCHAR

STARTCHAR char194
ENCODING 194
SWIDTH 24 0
DWIDTH 15 0
BBX 14 16 0 0
BITMAP
0600
0500
0980
0000
0700
0780
0D80
0DC0
18C0
18C0
1060
3FE0
2030
6030
4018
E01C
ENDCHAR

STARTCHAR char195
ENCODING 195
SWIDTH 24 0
DWIDTH 15 0
BBX 14 16 0 0
BITMAP
1C40
3780
1100
0000
0700
0780
0D80
0DC0
18C0
18C0
1060
3FE0
2030
6030
4018
E01C
ENDCHAR

STARTCHAR char196
ENCODING 196
SWIDTH 24 0
DWIDTH 15 0
BBX 14 13 0 0
BITMAP
37B0
0710
0780
0D80
0CC0
18C0
1860
3060
3FE0
3030
6030
6018
A01C
ENDCHAR

STARTCHAR char197
ENCODING 197
SWIDTH 24 0
DWIDTH 15 0
BBX 14 16 0 0
BITMAP
0700
0D80
0F80
0BC0
0700
0F80
0D80
0C80
18C0
18C0
1060
3FE0
2030
6030
C018
E038
ENDCHAR

STARTCHAR char198
ENCODING 198
SWIDTH 3 0
DWIDTH 21 0
BBX 20 12 -1 0
BITMAP
01FFE0
036010
026000
066000
046080
0C7F00
086080
1FE000
306000
306000
606010
607FE0
ENDCHAR

STARTCHAR char199
ENCODING 199
SWIDTH 29 0
DWIDTH 16 0
BBX 15 15 0 -3
BITMAP
0FE0
381E
7004
6000
C000
C000
C000
C000
6004
700C
3838
0FF0
0300
0180
0780
ENDCHAR

STARTCHAR char200
ENCODING 200
SWIDTH 19 0
DWIDTH 14 0
BBX 12 16 1 0
BITMAP
1800
0800
0400
0020
FFE0
C010
C000
C000
C080
FF00
C080
C000
C000
C000
C010
FFE0
ENDCHAR

STARTCHAR char201
ENCODING 201
SWIDTH 19 0
DWIDTH 14 0
BBX 12 16 1 0
BITMAP
0600
0400
0400
0020
FFE0
C010
C000
C000
C080
FF00
C080
C000
C000
C000
C010
FFE0
ENDCHAR

STARTCHAR char202
ENCODING 202
SWIDTH 19 0
DWIDTH 14 0
BBX 12 16 1 0
BITMAP
0C00
1200
1300
0020
FFE0
C010
C000
C000
C080
FF00
C080
C000
C000
C000
C010
FFE0
ENDCHAR

STARTCHAR char203
ENCODING 203
SWIDTH 19 0
DWIDTH 14 0
BBX 12 16 1 0
BITMAP
1000
3300
0000
0020
FFE0
C010
C000
C000
C080
FF00
C080
C000
C000
C000
C010
FFE0
ENDCHAR

STARTCHAR char204
ENCODING 204
SWIDTH 25 0
DWIDTH 5 0
BBX 5 16 -1 0
BITMAP
60
20
20
00
30
30
30
30
30
30
30
30
30
30
30
38
ENDCHAR

STARTCHAR char205
ENCODING 205
SWIDTH 25 0
DWIDTH 5 0
BBX 4 16 1 0
BITMAP
20
20
40
00
60
60
60
60
60
60
60
60
60
60
60
E0
ENDCHAR

STARTCHAR char206
ENCODING 206
SWIDTH 25 0
DWIDTH 5 0
BBX 5 16 -1 0
BITMAP
30
50
98
00
30
30
30
30
30
30
30
30
30
30
30
70
ENDCHAR

STARTCHAR char207
ENCODING 207
SWIDTH 25 0
DWIDTH 5 0
BBX 7 16 -1 0
BITMAP
40
CC
00
00
30
30
30
30
30
30
30
30
30
30
30
38
ENDCHAR

STARTCHAR char209
ENCODING 209
SWIDTH 29 0
DWIDTH 16 0
BBX 14 16 1 0
BITMAP
1C40
7780
2100
2014
E018
F018
D818
CC18
CE18
C718
C398
C1D8
C0D8
C078
C038
E03C
ENDCHAR

STARTCHAR char210
ENCODING 210
SWIDTH 39 0
DWIDTH 18 0
BBX 15 16 0 0
BITMAP
0200
0300
0100
0000
0FF0
3838
700C
6006
C006
C006
C006
C006
600C
301C
1C38
0FE0
ENDCHAR

STARTCHAR char211
ENCODING 211
SWIDTH 39 0
DWIDTH 18 0
BBX 15 16 0 0
BITMAP
0080
0180
0100
0000
0FF0
3838
700C
6006
C006
C006
C006
C006
600C
301C
1C38
0FE0
ENDCHAR

STARTCHAR char212
ENCODING 212
SWIDTH 39 0
DWIDTH 18 0
BBX 15 16 0 0
BITMAP
0100
0280
04C0
0000
0FF0
3838
700C
6006
C006
C006
C006
C006
600C
301C
1C38
0FE0
ENDCHAR

STARTCHAR char213
ENCODING 213
SWIDTH 39 0
DWIDTH 18 0
BBX 15 16 0 0
BITMAP
0F30
1BE0
0880
0000
0FF0
3838
700C
6006
C006
C006
C006
C006
600C
301C
1C38
0FE0
ENDCHAR

STARTCHAR char214
ENCODING 214
SWIDTH 39 0
DWIDTH 18 0
BBX 15 13 0 0
BITMAP
C006
C7F6
3838
700C
E006
C006
C006
C006
C006
600C
301C
1C38
0FE0
ENDCHAR

STARTCHAR char216
ENCODING 216
SWIDTH 39 0
DWIDTH 18 0
BBX 15 13 0 0
BITMAP
0002
1FE4
3838
703C
6066
C0C6
C106
C206
E406
680C
701C
7C38
C7E0
ENDCHAR

STARTCHAR char217
ENCODING 217
SWIDTH 29 0
DWIDTH 16 0
BBX 12 16 1 0
BITMAP
0800
0400
0400
0000
C030
C030
C030
C030
C030
C030
C030
C030
C030
E070
70E0
1F80
ENDCHAR

STARTCHAR char218
ENCODING 218
SWIDTH 29 0
DWIDTH 16 0
BBX 12 16 1 0
BITMAP
0300
0200
0400
0000
C030
C030
C030
C030
C030
C030
C030
C030
C030
E070
70E0
1F80
ENDCHAR

STARTCHAR char219
ENCODING 219
SWIDTH 29 0
DWIDTH 16 0
BBX 12 16 1 0
BITMAP
0600
0B00
1B80
0000
C030
C030
C030
C030
C030
C030
C030
C030
C030
C070
70E0
1F80
ENDCHAR

STARTCHAR char220
ENCODING 220
SWIDTH 29 0
DWIDTH 16 0
BBX 13 13 1 0
BITMAP
B9C8
C030
C030
C030
C030
C030
C030
C030
C030
C030
E070
70E0
3F80
ENDCHAR

STARTCHAR char222
ENCODING 222
SWIDTH 39 0
DWIDTH 18 0
BBX 0 0 0 0
BITMAP
ENDCHAR

STARTCHAR char223
ENCODING 223
SWIDTH 18 0
DWIDTH 24 0
BBX 23 10 0 0
BITMAP
1F81F8
606606
C00C00
E00E00
7F87F8
01E01E
006006
C06C06
E1CE1C
1F01F0
ENDCHAR

STARTCHAR char224
ENCODING 224
SWIDTH 9 0
DWIDTH 12 0
BBX 11 14 0 0
BITMAP
1800
0800
0400
0000
0E00
0A00
1B00
1300
3100
3180
7F80
60C0
4040
E060
ENDCHAR

STARTCHAR char225
ENCODING 225
SWIDTH 9 0
DWIDTH 12 0
BBX 11 14 0 0
BITMAP
0600
0400
0400
0000
0E00
0A00
1B00
1300
3100
3180
7F80
60C0
4040
E060
ENDCHAR

STARTCHAR char226
ENCODING 226
SWIDTH 9 0
DWIDTH 12 0
BBX 11 14 0 0
BITMAP
0C00
1200
1300
0000
0E00
0A00
1B00
1300
3100
3180
7F80
60C0
4040
E060
ENDCHAR

STARTCHAR char227
ENCODING 227
SWIDTH 9 0
DWIDTH 12 0
BBX 11 13 0 0
BITMAP
3D80
2600
0000
0E00
0A00
1B00
1300
3100
3180
7F80
60C0
4040
E060
ENDCHAR

STARTCHAR char228
ENCODING 228
SWIDTH 9 0
DWIDTH 12 0
BBX 11 13 0 0
BITMAP
1B00
0800
0000
0600
0E00
0A00
1B00
3100
3180
7F80
60C0
40C0
E060
ENDCHAR

STARTCHAR char229
ENCODING 229
SWIDTH 9 0
DWIDTH 12 0
BBX 11 13 0 0
BITMAP
1F00
1900
0F00
1F00
1F00
1B00
1300
3100
2180
7F80
40C0
C0C0
E060
ENDCHAR

STARTCHAR char230
ENCODING 230
SWIDTH 34 0
DWIDTH 17 0
BBX 16 11 -1 0
BITMAP
0002
07FE
0580
0D80
0980
19FC
1184
3F80
2180
2181
61FE
ENDCHAR

STARTCHAR char231
ENCODING 231
SWIDTH 14 0
DWIDTH 13 0
BBX 12 13 0 -3
BITMAP
1FC0
3020
6020
C000
C000
C000
C000
6030
3850
0780
0600
0300
0E00
ENDCHAR

STARTCHAR char232
ENCODING 232
SWIDTH 9 0
DWIDTH 12 0
BBX 10 14 1 0
BITMAP
3000
1000
0800
0040
FFC0
C000
C000
C000
FE00
C100
C000
C000
C040
FFC0
ENDCHAR

STARTCHAR char233
ENCODING 233
SWIDTH 9 0
DWIDTH 12 0
BBX 10 14 1 0
BITMAP
0C00
0800
0800
0040
FFC0
C000
C000
C000
FE00
C100
C000
C000
C040
FFC0
ENDCHAR

STARTCHAR char234
ENCODING 234
SWIDTH 9 0
DWIDTH 12 0
BBX 10 14 1 0
BITMAP
1800
1C00
2600
0040
FFC0
C000
C000
C000
FE00
C100
C000
C000
C040
FFC0
ENDCHAR

STARTCHAR char235
ENCODING 235
SWIDTH 9 0
DWIDTH 12 0
BBX 10 14 1 0
BITMAP
0200
6600
0000
0040
FFC0
8000
8000
8000
FE00
8100
8000
8000
8040
FFC0
ENDCHAR

STARTCHAR char236
ENCODING 236
SWIDTH 25 0
DWIDTH 5 0
BBX 4 14 0 0
BITMAP
C0
40
60
00
60
60
60
60
60
60
60
60
60
70
ENDCHAR

STARTCHAR char237
ENCODING 237
SWIDTH 25 0
DWIDTH 5 0
BBX 4 14 1 0
BITMAP
60
60
40
00
C0
C0
C0
C0
C0
C0
C0
C0
C0
E0
ENDCHAR

STARTCHAR char238
ENCODING 238
SWIDTH 25 0
DWIDTH 5 0
BBX 7 14 -1 0
BITMAP
38
38
4C
46
30
30
30
30
30
30
30
30
30
38
ENDCHAR

STARTCHAR char239
ENCODING 239
SWIDTH 25 0
DWIDTH 5 0
BBX 6 13 -1 0
BITMAP
CC
40
00
30
30
30
30
30
30
30
30
30
38
ENDCHAR

STARTCHAR char241
ENCODING 241
SWIDTH 19 0
DWIDTH 14 0
BBX 12 13 1 0
BITMAP
3900
2600
0000
E060
F060
D860
D860
CC60
C660
C360
C1E0
C0E0
C0F0
ENDCHAR

STARTCHAR char242
ENCODING 242
SWIDTH 24 0
DWIDTH 15 0
BBX 13 14 0 0
BITMAP
0C00
0400
0200
0000
1FC0
3070
6030
C018
C018
C018
C018
6030
3860
0FC0
ENDCHAR

STARTCHAR char243
ENCODING 243
SWIDTH 24 0
DWIDTH 15 0
BBX 13 14 0 0
BITMAP
0300
0200
0200
0000
1FC0
3070
6030
C018
C018
C018
C018
6030
3860
0FC0
ENDCHAR

STARTCHAR char244
ENCODING 244
SWIDTH 24 0
DWIDTH 15 0
BBX 13 14 0 0
BITMAP
0600
0700
0980
1980
1FC0
3070
6030
C018
C018
C018
C018
6030
3860
0FC0
ENDCHAR

STARTCHAR char245
ENCODING 245
SWIDTH 24 0
DWIDTH 15 0
BBX 13 13 0 0
BITMAP
0EC0
1100
0000
1FC0
3070
6030
C018
C018
C018
C018
6030
3860
0FC0
ENDCHAR

STARTCHAR char246
ENCODING 246
SWIDTH 24 0
DWIDTH 15 0
BBX 13 13 0 0
BITMAP
0D80
0400
0000
1FC0
3070
6030
C018
C018
C018
C018
6030
3860
0FC0
ENDCHAR

STARTCHAR char247
ENCODING 247
SWIDTH 50 0
DWIDTH 10 0
BBX 9 5 0 2
BITMAP
0C00
0000
FF80
0000
0C00
ENDCHAR

STARTCHAR char248
ENCODING 248
SWIDTH 24 0
DWIDTH 15 0
BBX 13 11 0 0
BITMAP
0010
1F90
3070
60F0
C198
C218
C418
C818
7030
78E0
8F80
ENDCHAR

STARTCHAR char249
ENCODING 249
SWIDTH 19 0
DWIDTH 14 0
BBX 11 14 1 0
BITMAP
1800
0800
0800
0000
C060
C060
C060
C060
C060
C060
C060
C060
60C0
3F80
ENDCHAR

STARTCHAR char250
ENCODING 250
SWIDTH 19 0
DWIDTH 14 0
BBX 11 14 1 0
BITMAP
0600
0400
0400
0000
C060
C060
C060
C060
C060
C060
C060
C060
60C0
3F80
ENDCHAR

STARTCHAR char251
ENCODING 251
SWIDTH 19 0
DWIDTH 14 0
BBX 11 14 1 0
BITMAP
0C00
1600
1300
0000
C060
C060
C060
C060
C060
C060
C060
C060
60C0
3F80
ENDCHAR

STARTCHAR char252
ENCODING 252
SWIDTH 19 0
DWIDTH 14 0
BBX 11 13 1 0
BITMAP
3300
0000
0000
C060
C060
C060
C060
C060
C060
C060
C060
61C0
3F00
ENDCHAR

STARTCHAR char255
ENCODING 255
SWIDTH 9 0
DWIDTH 12 0
BBX 10 13 0 0
BITMAP
3300
0000
0000
60C0
6180
3300
1B00
0E00
0C00
0C00
0C00
0C00
0E00
ENDCHAR
ENDFONT
